<svg width="12" height="8" viewBox="0 0 12 8" fill="none" xmlns="http://www.w3.org/2000/svg">
<path opacity="0.5" d="M6.00586 7.13867C5.72461 7.13867 5.4668 7.02344 5.23242 6.79297L0.896484 2.35742C0.810547 2.26758 0.744141 2.16992 0.697266 2.06445C0.654297 1.95508 0.632812 1.83789 0.632812 1.71289C0.632812 1.53711 0.673828 1.37891 0.755859 1.23828C0.841797 1.09375 0.955078 0.980469 1.0957 0.898438C1.23633 0.8125 1.39258 0.769531 1.56445 0.769531C1.82617 0.769531 2.05664 0.869141 2.25586 1.06836L6.24609 5.17578H5.77148L9.75 1.06836C9.94922 0.869141 10.1777 0.769531 10.4355 0.769531C10.6074 0.769531 10.7637 0.8125 10.9043 0.898438C11.0449 0.980469 11.1562 1.09375 11.2383 1.23828C11.3242 1.37891 11.3672 1.53711 11.3672 1.71289C11.3672 1.9668 11.2793 2.18164 11.1035 2.35742L6.77344 6.79297C6.65625 6.91016 6.53516 6.99609 6.41016 7.05078C6.28516 7.10547 6.15039 7.13477 6.00586 7.13867Z" fill="black" style="fill:black;fill-opacity:1;"/>
</svg>
