<svg width="24" height="24" viewBox="0 0 24 24" fill="none" xmlns="http://www.w3.org/2000/svg">
<path d="M5.29688 11.8594C5.29688 11.5312 5.41146 11.2526 5.64062 11.0234C5.875 10.7891 6.15625 10.6719 6.48438 10.6719H10.8203V6.34375C10.8203 6.01562 10.9349 5.73698 11.1641 5.50781C11.3932 5.27344 11.6719 5.15625 12 5.15625C12.3281 5.15625 12.6068 5.27344 12.8359 5.50781C13.0703 5.73698 13.1875 6.01562 13.1875 6.34375V10.6719H17.5234C17.8464 10.6719 18.1224 10.7891 18.3516 11.0234C18.5859 11.2526 18.7031 11.5312 18.7031 11.8594C18.7031 12.1875 18.5859 12.4688 18.3516 12.7031C18.1224 12.9323 17.8464 13.0469 17.5234 13.0469H13.1875V17.3828C13.1875 17.7057 13.0703 17.9818 12.8359 18.2109C12.6068 18.4453 12.3281 18.5625 12 18.5625C11.6719 18.5625 11.3932 18.4453 11.1641 18.2109C10.9349 17.9818 10.8203 17.7057 10.8203 17.3828V13.0469H6.48438C6.15625 13.0469 5.875 12.9323 5.64062 12.7031C5.41146 12.4688 5.29688 12.1875 5.29688 11.8594Z" fill="black" style="fill:black;fill-opacity:1;"/>
</svg>
